<?xml version="1.0" standalone="no"?>
<!DOCTYPE svg PUBLIC "-//W3C//DTD SVG 20010904//EN"
 "http://www.w3.org/TR/2001/REC-SVG-20010904/DTD/svg10.dtd">
<svg version="1.0" xmlns="http://www.w3.org/2000/svg"
 width="200.000000pt" height="200.000000pt" viewBox="0 0 200.000000 200.000000"
 preserveAspectRatio="xMidYMid meet">

<g transform="translate(0.000000,200.000000) scale(0.100000,-0.100000)"
fill="#000000" stroke="none">
<path d="M970 1750 c0 -27 3 -30 30 -30 27 0 30 3 30 30 0 27 -3 30 -30 30
-27 0 -30 -3 -30 -30z"/>
<path d="M720 1720 c0 -27 3 -30 30 -30 27 0 30 3 30 30 0 27 -3 30 -30 30
-27 0 -30 -3 -30 -30z"/>
<path d="M1220 1720 c0 -27 3 -30 30 -30 27 0 30 3 30 30 0 27 -3 30 -30 30
-27 0 -30 -3 -30 -30z"/>
<path d="M970 1610 c0 -49 1 -50 30 -50 29 0 30 1 30 50 0 49 -1 50 -30 50
-29 0 -30 -1 -30 -50z"/>
<path d="M720 1580 c0 -49 1 -50 30 -50 29 0 30 1 30 50 0 49 -1 50 -30 50
-29 0 -30 -1 -30 -50z"/>
<path d="M1220 1580 c0 -49 1 -50 30 -50 29 0 30 1 30 50 0 49 -1 50 -30 50
-29 0 -30 -1 -30 -50z"/>
<path d="M936 1464 c-36 -25 -59 -34 -90 -34 -98 0 -323 -50 -446 -100 -135
-54 -260 -153 -308 -244 l-27 -51 0 -250 0 -250 28 -57 c78 -158 321 -284 642
-333 130 -19 400 -19 530 0 321 49 564 175 642 333 l28 57 0 250 0 250 -27 51
c-48 91 -173 190 -308 244 -123 50 -348 100 -446 100 -31 0 -55 9 -93 35 -28
19 -56 35 -63 34 -7 0 -35 -16 -62 -35z m98 -154 c25 -62 31 -70 50 -64 35 11
37 19 16 69 -11 26 -19 49 -17 51 2 2 35 -18 74 -45 73 -51 106 -93 117 -146
5 -27 1 -33 -45 -64 -27 -19 -58 -44 -68 -57 l-18 -22 -63 44 c-35 24 -71 44
-80 44 -9 0 -45 -20 -80 -44 l-63 -44 -18 22 c-10 13 -41 38 -69 57 -45 30
-50 37 -45 63 9 51 45 96 118 147 39 27 72 47 74 45 2 -2 -6 -25 -17 -51 -21
-50 -19 -58 16 -69 19 -6 25 2 50 64 16 38 31 70 34 70 3 0 18 -32 34 -70z
m-280 22 c-39 -34 -71 -80 -79 -115 -4 -15 -9 -27 -12 -27 -2 0 -24 14 -48 30
-24 17 -48 30 -53 30 -13 0 -221 -147 -260 -183 -54 -51 -74 -101 -81 -197
l-6 -84 -32 40 c-42 53 -55 88 -54 146 0 159 216 308 541 373 36 7 76 13 90
14 l25 0 -31 -27z m656 -7 c287 -72 460 -206 460 -357 0 -56 -14 -90 -58 -148
l-27 -35 -6 85 c-7 96 -27 146 -81 197 -39 36 -247 183 -260 183 -5 0 -29 -13
-53 -30 -24 -16 -46 -30 -48 -30 -3 0 -8 12 -12 27 -8 35 -40 81 -79 116 l-31
28 50 -6 c28 -3 93 -17 145 -30z m-791 -323 c1 -9 8 -11 24 -7 38 12 41 22 19
72 -11 26 -19 49 -17 51 4 4 130 -85 145 -104 12 -13 7 -21 -35 -57 -68 -58
-95 -121 -95 -219 l0 -78 -115 0 c-109 0 -119 2 -176 31 -70 35 -89 67 -89
151 0 64 12 111 41 152 23 34 152 131 157 118 1 -5 -6 -28 -17 -53 l-20 -44
25 -13 c14 -8 27 -12 29 -10 2 2 18 35 36 73 l31 70 28 -60 c16 -33 29 -66 29
-73z m855 53 c16 -36 31 -65 35 -65 3 1 16 6 28 13 l22 12 -20 44 c-11 25 -18
48 -17 53 5 13 134 -84 157 -118 29 -41 41 -88 41 -152 0 -84 -19 -116 -89
-151 -57 -29 -67 -31 -176 -31 l-115 0 0 78 c0 98 -27 161 -95 219 -42 36 -47
44 -35 57 15 19 141 108 145 104 2 -2 -6 -25 -17 -51 -22 -49 -19 -60 17 -71
17 -5 24 4 49 64 15 38 32 68 35 65 4 -2 20 -34 35 -70z m-574 -115 c-11 -29
-19 -54 -18 -55 2 -2 15 -6 29 -10 24 -6 28 -2 54 59 15 36 31 66 35 66 4 0
20 -30 35 -66 26 -61 30 -65 54 -59 14 4 27 8 29 10 2 2 -6 25 -17 50 -12 26
-21 52 -21 57 0 10 86 -48 134 -91 46 -41 66 -96 66 -181 0 -95 -21 -135 -77
-147 -49 -9 -357 -9 -406 0 -56 12 -77 52 -77 147 0 82 20 139 61 177 31 28
133 102 137 98 1 -1 -7 -26 -18 -55z m-680 -284 c0 -25 -4 -46 -8 -46 -23 0
-82 107 -82 148 l0 28 45 -42 c41 -38 45 -46 45 -88z m1631 35 c-52 -101 -175
-183 -370 -247 -103 -34 -101 -34 -101 36 l0 59 43 11 c87 23 174 54 237 85
77 39 188 119 198 143 5 13 8 9 10 -15 2 -18 -6 -49 -17 -72z m-1490 -66 c86
-40 211 -77 342 -102 106 -20 477 -24 560 -6 l47 10 0 -63 0 -63 -47 -8 c-27
-4 -149 -8 -273 -8 -178 0 -243 4 -310 18 -124 26 -240 64 -322 106 l-73 37
-3 57 c-2 31 -1 57 1 57 3 0 38 -16 78 -35z m-27 -174 c44 -22 114 -50 154
-62 l72 -23 0 -58 c0 -70 0 -70 -108 -28 -186 72 -322 193 -322 288 l0 34 61
-56 c35 -31 96 -72 143 -95z m1518 52 c-11 -21 -44 -61 -74 -88 l-53 -50 -3
55 c-3 50 -1 56 25 74 15 12 48 40 73 63 l45 42 3 -29 c2 -16 -6 -46 -16 -67z
m-194 -120 l-3 -58 -75 -32 c-180 -76 -380 -108 -635 -100 -99 4 -209 12 -245
19 l-65 13 -3 64 c-3 62 -2 63 20 58 120 -30 348 -42 503 -28 157 15 247 34
380 80 61 21 114 39 118 40 4 0 7 -25 5 -56z"/>
</g>
</svg>
